name rise44.9368peak50.754fall52.0217.mot
datacolumns 19
datarows 36
range 16.03994400000000 16.09827600000000
endheader
time	ground_force1_vx	ground_force1_vy	ground_force1_vz	ground_force1_px	ground_force1_py	ground_force1_pz	ground_force2_vx	ground_force2_vy	ground_force2_vz	ground_force2_px	ground_force2_py	ground_force2_pz	ground_torque1_x	ground_torque1_y	ground_torque1_z	ground_torque2_x	ground_torque2_y	ground_torque2_z	
16.03994400000000	43.64788200000000	730.18765099999996	60.53794800000000	0.31165000000000	0.00000000000000	0.15660800000000	0.00000000000000	0.00000000000000	0.00000000000000	0.00000000000000	0.00000000000000	0.00000000000000	0.00000000000000	23.24652600000000	0.00000000000000	0.00000000000000	0.00000000000000	0.00000000000000	
16.04161100000000	42.83477800000000	732.15465600000005	60.60680800000000	0.31015100000000	0.00000000000000	0.15663900000000	0.00000000000000	0.00000000000000	0.00000000000000	0.00000000000000	0.00000000000000	0.00000000000000	0.00000000000000	23.32024100000000	0.00000000000000	0.00000000000000	0.00000000000000	0.00000000000000	
16.04327500000000	42.02903900000000	734.07117700000003	60.68812800000000	0.30869200000000	0.00000000000000	0.15667100000000	0.00000000000000	0.00000000000000	0.00000000000000	0.00000000000000	0.00000000000000	0.00000000000000	0.00000000000000	23.40191400000000	0.00000000000000	0.00000000000000	0.00000000000000	0.00000000000000	
16.04494300000000	41.23167000000000	735.93673799999999	60.78185700000000	0.30727200000000	0.00000000000000	0.15670400000000	0.00000000000000	0.00000000000000	0.00000000000000	0.00000000000000	0.00000000000000	0.00000000000000	0.00000000000000	23.49135000000000	0.00000000000000	0.00000000000000	0.00000000000000	0.00000000000000	
16.04661100000000	40.44358500000000	737.75073999999995	60.88782300000000	0.30589300000000	0.00000000000000	0.15673800000000	0.00000000000000	0.00000000000000	0.00000000000000	0.00000000000000	0.00000000000000	0.00000000000000	0.00000000000000	23.58829100000000	0.00000000000000	0.00000000000000	0.00000000000000	0.00000000000000	
16.04827600000000	39.66560600000000	739.51247400000000	61.00573700000000	0.30455600000000	0.00000000000000	0.15677400000000	0.00000000000000	0.00000000000000	0.00000000000000	0.00000000000000	0.00000000000000	0.00000000000000	0.00000000000000	23.69242500000000	0.00000000000000	0.00000000000000	0.00000000000000	0.00000000000000	
16.04994700000000	38.89846500000000	741.22113500000000	61.13519800000000	0.30326000000000	0.00000000000000	0.15681100000000	0.00000000000000	0.00000000000000	0.00000000000000	0.00000000000000	0.00000000000000	0.00000000000000	0.00000000000000	23.80338400000000	0.00000000000000	0.00000000000000	0.00000000000000	0.00000000000000	
16.05160700000000	38.14280300000000	742.87583400000005	61.27569800000000	0.30200500000000	0.00000000000000	0.15684900000000	0.00000000000000	0.00000000000000	0.00000000000000	0.00000000000000	0.00000000000000	0.00000000000000	0.00000000000000	23.92075100000000	0.00000000000000	0.00000000000000	0.00000000000000	0.00000000000000	
16.05327500000000	37.39917300000000	744.47561199999996	61.42663000000000	0.30079100000000	0.00000000000000	0.15688800000000	0.00000000000000	0.00000000000000	0.00000000000000	0.00000000000000	0.00000000000000	0.00000000000000	0.00000000000000	24.04406200000000	0.00000000000000	0.00000000000000	0.00000000000000	0.00000000000000	
16.05494500000000	36.66804100000000	746.01945599999999	61.58729400000000	0.29961900000000	0.00000000000000	0.15692700000000	0.00000000000000	0.00000000000000	0.00000000000000	0.00000000000000	0.00000000000000	0.00000000000000	0.00000000000000	24.17281200000000	0.00000000000000	0.00000000000000	0.00000000000000	0.00000000000000	
16.05661400000000	35.94978700000000	747.50630899999999	61.75690200000000	0.29848700000000	0.00000000000000	0.15696700000000	0.00000000000000	0.00000000000000	0.00000000000000	0.00000000000000	0.00000000000000	0.00000000000000	0.00000000000000	24.30645700000000	0.00000000000000	0.00000000000000	0.00000000000000	0.00000000000000	
16.05827900000000	35.24471000000000	748.93509100000006	61.93458800000000	0.29739400000000	0.00000000000000	0.15700800000000	0.00000000000000	0.00000000000000	0.00000000000000	0.00000000000000	0.00000000000000	0.00000000000000	0.00000000000000	24.44441800000000	0.00000000000000	0.00000000000000	0.00000000000000	0.00000000000000	
16.05994000000000	34.55302900000000	750.30470600000001	62.11941500000000	0.29634100000000	0.00000000000000	0.15704900000000	0.00000000000000	0.00000000000000	0.00000000000000	0.00000000000000	0.00000000000000	0.00000000000000	0.00000000000000	24.58608700000000	0.00000000000000	0.00000000000000	0.00000000000000	0.00000000000000	
16.06161200000000	33.87488400000000	751.61405600000001	62.31038300000000	0.29532500000000	0.00000000000000	0.15709100000000	0.00000000000000	0.00000000000000	0.00000000000000	0.00000000000000	0.00000000000000	0.00000000000000	0.00000000000000	24.73082900000000	0.00000000000000	0.00000000000000	0.00000000000000	0.00000000000000	
16.06328000000000	33.21034500000000	752.86206000000004	62.50643600000000	0.29434700000000	0.00000000000000	0.15713300000000	0.00000000000000	0.00000000000000	0.00000000000000	0.00000000000000	0.00000000000000	0.00000000000000	0.00000000000000	24.87798700000000	0.00000000000000	0.00000000000000	0.00000000000000	0.00000000000000	
16.06494600000000	32.55940800000000	754.04765999999995	62.70647300000000	0.29340300000000	0.00000000000000	0.15717500000000	0.00000000000000	0.00000000000000	0.00000000000000	0.00000000000000	0.00000000000000	0.00000000000000	0.00000000000000	25.02688600000000	0.00000000000000	0.00000000000000	0.00000000000000	0.00000000000000	
16.06660800000000	31.92200700000000	755.16983700000003	62.90935100000000	0.29249400000000	0.00000000000000	0.15721700000000	0.00000000000000	0.00000000000000	0.00000000000000	0.00000000000000	0.00000000000000	0.00000000000000	0.00000000000000	25.17683800000000	0.00000000000000	0.00000000000000	0.00000000000000	0.00000000000000	
16.06827900000000	31.29801100000000	756.22762100000000	63.11390100000000	0.29161700000000	0.00000000000000	0.15726000000000	0.00000000000000	0.00000000000000	0.00000000000000	0.00000000000000	0.00000000000000	0.00000000000000	0.00000000000000	25.32714300000000	0.00000000000000	0.00000000000000	0.00000000000000	0.00000000000000	
16.06994200000000	30.68723100000000	757.22010100000000	63.31893000000000	0.29077100000000	0.00000000000000	0.15730200000000	0.00000000000000	0.00000000000000	0.00000000000000	0.00000000000000	0.00000000000000	0.00000000000000	0.00000000000000	25.47709800000000	0.00000000000000	0.00000000000000	0.00000000000000	0.00000000000000	
16.07160700000000	30.08942500000000	758.14643999999998	63.52323000000000	0.28995300000000	0.00000000000000	0.15734300000000	0.00000000000000	0.00000000000000	0.00000000000000	0.00000000000000	0.00000000000000	0.00000000000000	0.00000000000000	25.62599500000000	0.00000000000000	0.00000000000000	0.00000000000000	0.00000000000000	
16.07327400000000	29.50430200000000	759.00587700000005	63.72559000000000	0.28916300000000	0.00000000000000	0.15738500000000	0.00000000000000	0.00000000000000	0.00000000000000	0.00000000000000	0.00000000000000	0.00000000000000	0.00000000000000	25.77313000000000	0.00000000000000	0.00000000000000	0.00000000000000	0.00000000000000	
16.07494500000000	28.93152300000000	759.79774499999996	63.92480100000000	0.28839700000000	0.00000000000000	0.15742600000000	0.00000000000000	0.00000000000000	0.00000000000000	0.00000000000000	0.00000000000000	0.00000000000000	0.00000000000000	25.91780300000000	0.00000000000000	0.00000000000000	0.00000000000000	0.00000000000000	
16.07660700000000	28.37071100000000	760.52146900000002	64.11966200000001	0.28765400000000	0.00000000000000	0.15746700000000	0.00000000000000	0.00000000000000	0.00000000000000	0.00000000000000	0.00000000000000	0.00000000000000	0.00000000000000	26.05932500000000	0.00000000000000	0.00000000000000	0.00000000000000	0.00000000000000	
16.07827300000000	27.82145400000000	761.17658100000006	64.30899200000000	0.28693200000000	0.00000000000000	0.15750700000000	0.00000000000000	0.00000000000000	0.00000000000000	0.00000000000000	0.00000000000000	0.00000000000000	0.00000000000000	26.19701800000000	0.00000000000000	0.00000000000000	0.00000000000000	0.00000000000000	
16.07993900000000	27.28330700000000	761.76272300000005	64.49163299999999	0.28622700000000	0.00000000000000	0.15754600000000	0.00000000000000	0.00000000000000	0.00000000000000	0.00000000000000	0.00000000000000	0.00000000000000	0.00000000000000	26.33022300000000	0.00000000000000	0.00000000000000	0.00000000000000	0.00000000000000	
16.08160600000000	26.75579800000000	762.27965200000006	64.66645800000001	0.28553900000000	0.00000000000000	0.15758500000000	0.00000000000000	0.00000000000000	0.00000000000000	0.00000000000000	0.00000000000000	0.00000000000000	0.00000000000000	26.45829900000000	0.00000000000000	0.00000000000000	0.00000000000000	0.00000000000000	
16.08327700000000	26.23843500000000	762.72724400000004	64.83238000000000	0.28486400000000	0.00000000000000	0.15762300000000	0.00000000000000	0.00000000000000	0.00000000000000	0.00000000000000	0.00000000000000	0.00000000000000	0.00000000000000	26.58062700000000	0.00000000000000	0.00000000000000	0.00000000000000	0.00000000000000	
16.08493900000000	25.73070500000000	763.10550200000000	64.98835400000000	0.28420100000000	0.00000000000000	0.15766000000000	0.00000000000000	0.00000000000000	0.00000000000000	0.00000000000000	0.00000000000000	0.00000000000000	0.00000000000000	26.69661700000000	0.00000000000000	0.00000000000000	0.00000000000000	0.00000000000000	
16.08661300000000	25.23208500000000	763.41455399999995	65.13338400000001	0.28354700000000	0.00000000000000	0.15769600000000	0.00000000000000	0.00000000000000	0.00000000000000	0.00000000000000	0.00000000000000	0.00000000000000	0.00000000000000	26.80570500000000	0.00000000000000	0.00000000000000	0.00000000000000	0.00000000000000	
16.08827800000000	24.74204100000000	763.65465600000005	65.26652900000001	0.28289900000000	0.00000000000000	0.15773100000000	0.00000000000000	0.00000000000000	0.00000000000000	0.00000000000000	0.00000000000000	0.00000000000000	0.00000000000000	26.90735900000000	0.00000000000000	0.00000000000000	0.00000000000000	0.00000000000000	
16.08994300000000	24.26003500000000	763.82619599999998	65.38690699999999	0.28225500000000	0.00000000000000	0.15776600000000	0.00000000000000	0.00000000000000	0.00000000000000	0.00000000000000	0.00000000000000	0.00000000000000	0.00000000000000	27.00108300000000	0.00000000000000	0.00000000000000	0.00000000000000	0.00000000000000	
16.09161000000000	23.78552900000000	763.92969100000005	65.49369900000001	0.28161300000000	0.00000000000000	0.15779900000000	0.00000000000000	0.00000000000000	0.00000000000000	0.00000000000000	0.00000000000000	0.00000000000000	0.00000000000000	27.08641400000000	0.00000000000000	0.00000000000000	0.00000000000000	0.00000000000000	
16.09327600000000	23.31798600000000	763.96578599999998	65.58615300000000	0.28097000000000	0.00000000000000	0.15783100000000	0.00000000000000	0.00000000000000	0.00000000000000	0.00000000000000	0.00000000000000	0.00000000000000	0.00000000000000	27.16293100000000	0.00000000000000	0.00000000000000	0.00000000000000	0.00000000000000	
16.09494500000000	22.85687900000000	763.93525899999997	65.66358600000000	0.28032500000000	0.00000000000000	0.15786200000000	0.00000000000000	0.00000000000000	0.00000000000000	0.00000000000000	0.00000000000000	0.00000000000000	0.00000000000000	27.23025000000000	0.00000000000000	0.00000000000000	0.00000000000000	0.00000000000000	
16.09661100000000	22.40168800000000	763.83901200000003	65.72538900000001	0.27967400000000	0.00000000000000	0.15789100000000	0.00000000000000	0.00000000000000	0.00000000000000	0.00000000000000	0.00000000000000	0.00000000000000	0.00000000000000	27.28803000000000	0.00000000000000	0.00000000000000	0.00000000000000	0.00000000000000	
16.09827600000000	21.95191000000000	763.67807200000004	65.77102700000000	0.27901600000000	0.00000000000000	0.15792000000000	0.00000000000000	0.00000000000000	0.00000000000000	0.00000000000000	0.00000000000000	0.00000000000000	0.00000000000000	27.33597100000000	0.00000000000000	0.00000000000000	0.00000000000000	0.00000000000000	
